<svg width="23" height="20" viewBox="0 0 23 20" fill="none" xmlns="http://www.w3.org/2000/svg">
    <path d="M21.375 17.5156H20.25V0.973086C20.25 0.715008 20.1315 0.467499 19.9205 0.28501C19.7095 0.102521 19.4234 0 19.125 0H3.375C3.07663 0 2.79048 0.102521 2.5795 0.28501C2.36853 0.467499 2.25 0.715008 2.25 0.973086V17.5156H1.125C0.826631 17.5156 0.540483 17.6181 0.329505 17.8006C0.118526 17.983 0 18.2306 0 18.4886C0 18.7467 0.118526 18.9942 0.329505 19.1767C0.540483 19.3592 0.826631 19.4617 1.125 19.4617H21.375C21.6734 19.4617 21.9595 19.3592 22.1705 19.1767C22.3815 18.9942 22.5 18.7467 22.5 18.4886C22.5 18.2306 22.3815 17.983 22.1705 17.8006C21.9595 17.6181 21.6734 17.5156 21.375 17.5156ZM12.375 17.5156H10.125V13.6232H12.375V17.5156ZM18 17.5156H14.625V12.6501C14.625 12.392 14.5065 12.1445 14.2955 11.962C14.0845 11.7796 13.7984 11.677 13.5 11.677H9C8.70163 11.677 8.41548 11.7796 8.2045 11.962C7.99353 12.1445 7.875 12.392 7.875 12.6501V17.5156H4.5V1.94617H18V17.5156Z" fill="#686868"/>
    <path d="M13.7812 6.48523H14.9062C15.2046 6.48523 15.4908 6.38271 15.7017 6.20022C15.9127 6.01774 16.0312 5.77023 16.0312 5.51215C16.0312 5.25407 15.9127 5.00656 15.7017 4.82407C15.4908 4.64158 15.2046 4.53906 14.9062 4.53906H13.7812C13.4829 4.53906 13.1967 4.64158 12.9858 4.82407C12.7748 5.00656 12.6562 5.25407 12.6562 5.51215C12.6562 5.77023 12.7748 6.01774 12.9858 6.20022C13.1967 6.38271 13.4829 6.48523 13.7812 6.48523ZM13.7812 10.3776H14.9062C15.2046 10.3776 15.4908 10.2751 15.7017 10.0926C15.9127 9.91008 16.0312 9.66257 16.0312 9.40449C16.0312 9.14642 15.9127 8.89891 15.7017 8.71642C15.4908 8.53393 15.2046 8.43141 14.9062 8.43141H13.7812C13.4829 8.43141 13.1967 8.53393 12.9858 8.71642C12.7748 8.89891 12.6562 9.14642 12.6562 9.40449C12.6562 9.66257 12.7748 9.91008 12.9858 10.0926C13.1967 10.2751 13.4829 10.3776 13.7812 10.3776ZM8.15625 6.48523H9.28125C9.57962 6.48523 9.86577 6.38271 10.0767 6.20022C10.2877 6.01774 10.4062 5.77023 10.4062 5.51215C10.4062 5.25407 10.2877 5.00656 10.0767 4.82407C9.86577 4.64158 9.57962 4.53906 9.28125 4.53906H8.15625C7.85788 4.53906 7.57173 4.64158 7.36075 4.82407C7.14978 5.00656 7.03125 5.25407 7.03125 5.51215C7.03125 5.77023 7.14978 6.01774 7.36075 6.20022C7.57173 6.38271 7.85788 6.48523 8.15625 6.48523ZM8.15625 10.3776H9.28125C9.57962 10.3776 9.86577 10.2751 10.0767 10.0926C10.2877 9.91008 10.4062 9.66257 10.4062 9.40449C10.4062 9.14642 10.2877 8.89891 10.0767 8.71642C9.86577 8.53393 9.57962 8.43141 9.28125 8.43141H8.15625C7.85788 8.43141 7.57173 8.53393 7.36075 8.71642C7.14978 8.89891 7.03125 9.14642 7.03125 9.40449C7.03125 9.66257 7.14978 9.91008 7.36075 10.0926C7.57173 10.2751 7.85788 10.3776 8.15625 10.3776Z" fill="#686868"/>
</svg>
