<svg width="57" height="57" viewBox="0 0 57 57" fill="none" xmlns="http://www.w3.org/2000/svg">
    <rect x="0.5" y="0.5" width="56" height="56" rx="7.5" fill="white" stroke="#EAEBEE"/>
    <path d="M19.3125 40.7403V38.8653H38.6874V40.7403H19.3125ZM19.3125 17.1347V15.2597H38.6874V17.1347H19.3125ZM29 29.875C29.9535 29.875 30.7648 29.5405 31.4338 28.8714C32.1029 28.2024 32.4374 27.3911 32.4374 26.4376C32.4374 25.484 32.1029 24.6728 31.4338 24.0037C30.7648 23.3346 29.9535 23.0001 29 23.0001C28.0464 23.0001 27.2352 23.3346 26.5661 24.0037C25.897 24.6728 25.5625 25.484 25.5625 26.4376C25.5625 27.3911 25.897 28.2024 26.5661 28.8714C27.2352 29.5405 28.0464 29.875 29 29.875ZM19.3846 37.375C18.7532 37.375 18.2188 37.1562 17.7813 36.7187C17.3438 36.2812 17.125 35.7468 17.125 35.1153V20.8847C17.125 20.2532 17.3438 19.7188 17.7813 19.2813C18.2188 18.8438 18.7532 18.625 19.3846 18.625H38.6153C39.2467 18.625 39.7812 18.8438 40.2187 19.2813C40.6562 19.7188 40.8749 20.2532 40.8749 20.8847V35.1153C40.8749 35.7468 40.6562 36.2812 40.2187 36.7187C39.7812 37.1562 39.2467 37.375 38.6153 37.375H19.3846ZM22.0048 35.5C22.9423 34.4936 24.0016 33.7212 25.1827 33.1827C26.3638 32.6443 27.6362 32.375 29 32.375C30.3637 32.375 31.6362 32.6443 32.8172 33.1827C33.9983 33.7212 35.0576 34.4936 35.9951 35.5H38.6153C38.7115 35.5 38.7996 35.4599 38.8798 35.3798C38.9599 35.2997 39 35.2115 39 35.1153V20.8847C39 20.7885 38.9599 20.7003 38.8798 20.6202C38.7996 20.5401 38.7115 20.5 38.6153 20.5H19.3846C19.2885 20.5 19.2003 20.5401 19.1202 20.6202C19.04 20.7003 19 20.7885 19 20.8847V35.1153C19 35.2115 19.04 35.2997 19.1202 35.3798C19.2003 35.4599 19.2885 35.5 19.3846 35.5H22.0048ZM24.875 35.5H33.125C32.5208 35.0833 31.8698 34.7708 31.1718 34.5625C30.4739 34.3542 29.75 34.25 29 34.25C28.25 34.25 27.526 34.3542 26.8281 34.5625C26.1302 34.7708 25.4791 35.0833 24.875 35.5ZM29 28.0001C28.5657 28.0001 28.1967 27.8483 27.893 27.5446C27.5893 27.2409 27.4374 26.8719 27.4374 26.4376C27.4374 26.0033 27.5893 25.6343 27.893 25.3306C28.1967 25.0269 28.5657 24.875 29 24.875C29.4343 24.875 29.8033 25.0269 30.107 25.3306C30.4107 25.6343 30.5625 26.0033 30.5625 26.4376C30.5625 26.8719 30.4107 27.2409 30.107 27.5446C29.8033 27.8483 29.4343 28.0001 29 28.0001Z" fill="#0F6FB5"/>
</svg>
