<svg width="71" height="23" viewBox="0 0 71 23" fill="none" xmlns="http://www.w3.org/2000/svg">
    <rect width="71" height="23" rx="11.5" fill="#E4FFE3"/>
    <path d="M11.7841 16H8.95881V7.27273H11.8736C12.7287 7.27273 13.4631 7.44744 14.0767 7.79688C14.6903 8.14347 15.1605 8.64205 15.4872 9.29261C15.8168 9.94034 15.9815 10.7173 15.9815 11.6236C15.9815 12.5327 15.8153 13.3139 15.483 13.9673C15.1534 14.6207 14.6761 15.1236 14.0511 15.4759C13.4261 15.8253 12.6705 16 11.7841 16ZM10.2756 14.8494H11.7116C12.3764 14.8494 12.929 14.7244 13.3693 14.4744C13.8097 14.2216 14.1392 13.8565 14.358 13.3793C14.5767 12.8991 14.6861 12.3139 14.6861 11.6236C14.6861 10.9389 14.5767 10.358 14.358 9.88068C14.142 9.40341 13.8196 9.04119 13.3906 8.79403C12.9616 8.54687 12.429 8.4233 11.7926 8.4233H10.2756V14.8494ZM20.3377 16.1321C19.6928 16.1321 19.1374 15.9943 18.6715 15.7188C18.2085 15.4403 17.8505 15.0497 17.5977 14.5469C17.3477 14.0412 17.2227 13.4489 17.2227 12.7699C17.2227 12.0994 17.3477 11.5085 17.5977 10.9972C17.8505 10.4858 18.2028 10.0866 18.6545 9.79972C19.109 9.51278 19.6403 9.36932 20.2482 9.36932C20.6175 9.36932 20.9755 9.4304 21.3221 9.55256C21.6687 9.67472 21.9798 9.86648 22.2553 10.1278C22.5309 10.3892 22.7482 10.7287 22.9073 11.1463C23.0664 11.5611 23.146 12.0653 23.146 12.6591V13.1108H17.9428V12.1562H21.8974C21.8974 11.821 21.8292 11.5241 21.6928 11.2656C21.5565 11.0043 21.3647 10.7983 21.1175 10.6477C20.8732 10.4972 20.5863 10.4219 20.2567 10.4219C19.8988 10.4219 19.5863 10.5099 19.3192 10.6861C19.055 10.8594 18.8505 11.0866 18.7056 11.3679C18.5636 11.6463 18.4925 11.9489 18.4925 12.2756V13.0213C18.4925 13.4588 18.5692 13.831 18.7227 14.1378C18.8789 14.4446 19.0962 14.679 19.3746 14.8409C19.6531 15 19.9783 15.0795 20.3505 15.0795C20.592 15.0795 20.8121 15.0455 21.011 14.9773C21.2099 14.9062 21.3817 14.8011 21.5266 14.6619C21.6715 14.5227 21.7823 14.3509 21.859 14.1463L23.065 14.3636C22.9684 14.7187 22.7951 15.0298 22.5451 15.2969C22.2979 15.5611 21.9869 15.767 21.6119 15.9148C21.2397 16.0597 20.815 16.1321 20.3377 16.1321ZM25.8338 7.27273V16H24.5597V7.27273H25.8338ZM27.5479 16V9.45455H28.8221V16H27.5479ZM28.1914 8.4446C27.9698 8.4446 27.7795 8.37074 27.6204 8.22301C27.4641 8.07244 27.386 7.89347 27.386 7.68608C27.386 7.47585 27.4641 7.29687 27.6204 7.14915C27.7795 6.99858 27.9698 6.9233 28.1914 6.9233C28.413 6.9233 28.6019 6.99858 28.7582 7.14915C28.9173 7.29687 28.9968 7.47585 28.9968 7.68608C28.9968 7.89347 28.9173 8.07244 28.7582 8.22301C28.6019 8.37074 28.413 8.4446 28.1914 8.4446ZM36.1357 9.45455L33.7621 16H32.3984L30.0206 9.45455H31.3885L33.0462 14.4915H33.1143L34.7678 9.45455H36.1357ZM39.9315 16.1321C39.2866 16.1321 38.7312 15.9943 38.2653 15.7188C37.8022 15.4403 37.4442 15.0497 37.1914 14.5469C36.9414 14.0412 36.8164 13.4489 36.8164 12.7699C36.8164 12.0994 36.9414 11.5085 37.1914 10.9972C37.4442 10.4858 37.7965 10.0866 38.2482 9.79972C38.7028 9.51278 39.234 9.36932 39.842 9.36932C40.2113 9.36932 40.5692 9.4304 40.9158 9.55256C41.2624 9.67472 41.5735 9.86648 41.8491 10.1278C42.1246 10.3892 42.342 10.7287 42.5011 11.1463C42.6602 11.5611 42.7397 12.0653 42.7397 12.6591V13.1108H37.5366V12.1562H41.4911C41.4911 11.821 41.4229 11.5241 41.2866 11.2656C41.1502 11.0043 40.9585 10.7983 40.7113 10.6477C40.467 10.4972 40.18 10.4219 39.8505 10.4219C39.4925 10.4219 39.18 10.5099 38.913 10.6861C38.6488 10.8594 38.4442 11.0866 38.2994 11.3679C38.1573 11.6463 38.0863 11.9489 38.0863 12.2756V13.0213C38.0863 13.4588 38.163 13.831 38.3164 14.1378C38.4727 14.4446 38.69 14.679 38.9684 14.8409C39.2468 15 39.5721 15.0795 39.9442 15.0795C40.1857 15.0795 40.4059 15.0455 40.6048 14.9773C40.8036 14.9062 40.9755 14.8011 41.1204 14.6619C41.2653 14.5227 41.3761 14.3509 41.4528 14.1463L42.6587 14.3636C42.5621 14.7187 42.3888 15.0298 42.1388 15.2969C41.8917 15.5611 41.5806 15.767 41.2056 15.9148C40.8335 16.0597 40.4087 16.1321 39.9315 16.1321ZM44.1534 16V9.45455H45.3849V10.4943H45.4531C45.5724 10.142 45.7827 9.86506 46.0838 9.66335C46.3878 9.45881 46.7315 9.35653 47.1151 9.35653C47.1946 9.35653 47.2884 9.35937 47.3963 9.36506C47.5071 9.37074 47.5938 9.37784 47.6562 9.38636V10.6051C47.6051 10.5909 47.5142 10.5753 47.3835 10.5582C47.2528 10.5384 47.1222 10.5284 46.9915 10.5284C46.6903 10.5284 46.4219 10.5923 46.1861 10.7202C45.9531 10.8452 45.7685 11.0199 45.6321 11.2443C45.4957 11.4659 45.4276 11.7187 45.4276 12.0028V16H44.1534ZM51.3455 16.1321C50.7006 16.1321 50.1452 15.9943 49.6793 15.7188C49.2163 15.4403 48.8583 15.0497 48.6055 14.5469C48.3555 14.0412 48.2305 13.4489 48.2305 12.7699C48.2305 12.0994 48.3555 11.5085 48.6055 10.9972C48.8583 10.4858 49.2106 10.0866 49.6623 9.79972C50.1168 9.51278 50.6481 9.36932 51.256 9.36932C51.6254 9.36932 51.9833 9.4304 52.3299 9.55256C52.6765 9.67472 52.9876 9.86648 53.2631 10.1278C53.5387 10.3892 53.756 10.7287 53.9151 11.1463C54.0742 11.5611 54.1538 12.0653 54.1538 12.6591V13.1108H48.9506V12.1562H52.9052C52.9052 11.821 52.837 11.5241 52.7006 11.2656C52.5643 11.0043 52.3725 10.7983 52.1254 10.6477C51.881 10.4972 51.5941 10.4219 51.2646 10.4219C50.9066 10.4219 50.5941 10.5099 50.3271 10.6861C50.0629 10.8594 49.8583 11.0866 49.7134 11.3679C49.5714 11.6463 49.5004 11.9489 49.5004 12.2756V13.0213C49.5004 13.4588 49.5771 13.831 49.7305 14.1378C49.8867 14.4446 50.104 14.679 50.3825 14.8409C50.6609 15 50.9862 15.0795 51.3583 15.0795C51.5998 15.0795 51.82 15.0455 52.0188 14.9773C52.2177 14.9062 52.3896 14.8011 52.5344 14.6619C52.6793 14.5227 52.7901 14.3509 52.8668 14.1463L54.0728 14.3636C53.9762 14.7187 53.8029 15.0298 53.5529 15.2969C53.3058 15.5611 52.9947 15.767 52.6197 15.9148C52.2475 16.0597 51.8228 16.1321 51.3455 16.1321ZM58.0178 16.1278C57.4893 16.1278 57.0178 15.9929 56.603 15.723C56.1911 15.4503 55.8672 15.0625 55.6314 14.5597C55.3984 14.054 55.282 13.4474 55.282 12.7401C55.282 12.0327 55.3999 11.4276 55.6357 10.9247C55.8743 10.4219 56.201 10.0369 56.6158 9.76989C57.0305 9.50284 57.5007 9.36932 58.0263 9.36932C58.4325 9.36932 58.7592 9.4375 59.0064 9.57386C59.2564 9.70739 59.4496 9.86364 59.5859 10.0426C59.7251 10.2216 59.8331 10.3793 59.9098 10.5156H59.9865V7.27273H61.2607V16H60.0163V14.9815H59.9098C59.8331 15.1207 59.7223 15.2798 59.5774 15.4588C59.4354 15.6378 59.2393 15.794 58.9893 15.9276C58.7393 16.0611 58.4155 16.1278 58.0178 16.1278ZM58.299 15.0412C58.6655 15.0412 58.9751 14.9446 59.228 14.7514C59.4837 14.5554 59.6768 14.2841 59.8075 13.9375C59.9411 13.5909 60.0078 13.1875 60.0078 12.7273C60.0078 12.2727 59.9425 11.875 59.8118 11.5341C59.6811 11.1932 59.4893 10.9276 59.2365 10.7372C58.9837 10.5469 58.6712 10.4517 58.299 10.4517C57.9155 10.4517 57.5959 10.5511 57.3402 10.75C57.0845 10.9489 56.8913 11.2202 56.7607 11.5639C56.6328 11.9077 56.5689 12.2955 56.5689 12.7273C56.5689 13.1648 56.6342 13.5582 56.7649 13.9077C56.8956 14.2571 57.0888 14.5341 57.3445 14.7386C57.603 14.9403 57.9212 15.0412 58.299 15.0412Z" fill="#4A9449"/>
</svg>
