<svg width="32" height="32" viewBox="0 0 32 32" fill="none" xmlns="http://www.w3.org/2000/svg">
    <circle cx="16" cy="16" r="15" fill="#FA713F" stroke="#D5EEFF" stroke-width="2"/>
    <path d="M16.405 11.1484H12.8908C12.6245 11.1484 12.3691 11.257 12.1808 11.4502C11.9925 11.6435 11.8867 11.9056 11.8867 12.1789V19.3919C11.8867 19.6652 11.9925 19.9273 12.1808 20.1205C12.3691 20.3138 12.6245 20.4223 12.8908 20.4223H19.9191C20.1854 20.4223 20.4408 20.3138 20.6291 20.1205C20.8174 19.9273 20.9232 19.6652 20.9232 19.3919V15.7854" stroke="white" stroke-width="1.25" stroke-linecap="round" stroke-linejoin="round"/>
    <path d="M20.1697 10.3768C20.3694 10.1718 20.6403 10.0566 20.9228 10.0566C21.2052 10.0566 21.4761 10.1718 21.6758 10.3768C21.8755 10.5817 21.9877 10.8597 21.9877 11.1496C21.9877 11.4394 21.8755 11.7174 21.6758 11.9224L16.9065 16.817L14.8984 17.3322L15.4005 15.2713L20.1697 10.3768Z" fill="white" stroke="white" stroke-width="1.25" stroke-linecap="round" stroke-linejoin="round"/>
</svg>
