<svg width="19" height="19" viewBox="0 0 19 19" fill="none" xmlns="http://www.w3.org/2000/svg">
    <g clip-path="url(#clip0_1_650)">
        <path d="M8.70703 3.16602H3.16536C2.74544 3.16602 2.34271 3.33283 2.04578 3.62976C1.74885 3.9267 1.58203 4.32942 1.58203 4.74935V15.8327C1.58203 16.2526 1.74885 16.6553 2.04578 16.9523C2.34271 17.2492 2.74544 17.416 3.16536 17.416H14.2487C14.6686 17.416 15.0714 17.2492 15.3683 16.9523C15.6652 16.6553 15.832 16.2526 15.832 15.8327V10.291" stroke="#0F6FB5" stroke-width="2" stroke-linecap="round" stroke-linejoin="round"/>
        <path d="M14.6445 1.97821C14.9595 1.66326 15.3866 1.48633 15.832 1.48633C16.2774 1.48633 16.7046 1.66326 17.0195 1.97821C17.3345 2.29315 17.5114 2.72031 17.5114 3.16571C17.5114 3.61111 17.3345 4.03826 17.0195 4.35321L9.4987 11.874L6.33203 12.6657L7.1237 9.49904L14.6445 1.97821Z" stroke="#0F6FB5" stroke-width="2" stroke-linecap="round" stroke-linejoin="round"/>
    </g>
    <defs>
        <clipPath id="clip0_1_650">
            <rect width="19" height="19" fill="white"/>
        </clipPath>
    </defs>
</svg>
