<svg width="17" height="18" viewBox="0 0 17 18" fill="none" xmlns="http://www.w3.org/2000/svg">
    <path d="M8.03648 17.9508C7.67228 17.8599 7.31416 17.7592 7.00308 17.5461C6.22815 17.0145 5.89229 16.1144 6.15835 15.2596C6.41784 14.4255 7.25043 13.8021 8.1776 13.7474C9.13715 13.6911 10.0279 14.1848 10.4118 14.9969C10.466 15.1112 10.5241 15.1505 10.6582 15.1491C11.4215 15.1426 12.1853 15.1533 12.9485 15.1426C13.9005 15.129 14.769 14.5183 15.0391 13.6729C14.9223 13.6897 14.816 13.7052 14.7093 13.7207C13.4119 13.908 12.1559 12.9483 12.1301 11.7297C12.1114 10.83 12.1119 9.92985 12.1296 9.03062C12.1554 7.73986 13.5272 6.77178 14.8904 7.0645C14.9577 7.07902 15.0244 7.09541 15.1281 7.1193C14.8757 5.17097 13.9349 3.60154 12.1873 2.52294C9.86149 1.08698 7.41128 1.00034 4.96207 2.24568C2.70155 3.395 1.66258 5.53675 1.57609 7.11555C2.09557 6.96708 2.60797 6.97879 3.11379 7.15958C3.94436 7.45651 4.54072 8.23116 4.54932 9.05545C4.55893 9.93781 4.56146 10.8202 4.54882 11.7021C4.53415 12.7615 3.59635 13.663 2.45066 13.7394C1.28068 13.8171 0.222499 13.0458 0.0429309 11.9803C0.019663 11.8426 0.0105582 11.7016 0.0100523 11.562C0.00752321 10.3059 -0.0127098 9.04936 0.0125815 7.79325C0.0783386 4.60474 1.64589 2.25364 4.69854 0.783495C6.02886 0.142796 7.47349 -0.088099 8.97225 0.0294562C12.4078 0.298756 15.1812 2.32108 16.2662 5.34614C16.545 6.12266 16.6689 6.92353 16.6689 7.7408C16.6694 9.49944 16.6724 11.2581 16.6679 13.0167C16.6628 14.9908 14.9916 16.5387 12.86 16.5471C12.1281 16.5499 11.3962 16.5499 10.6642 16.5453C10.5378 16.5443 10.4715 16.572 10.4128 16.6904C10.0765 17.3686 9.50843 17.7822 8.71125 17.9189C8.67483 17.925 8.63993 17.9391 8.60401 17.9494C8.41483 17.9508 8.22566 17.9508 8.03648 17.9508ZM1.52399 10.3537C1.52399 10.7738 1.52146 11.1939 1.52449 11.614C1.52753 12.0276 1.84974 12.3376 2.27311 12.3409C2.70559 12.3447 3.03589 12.0327 3.03691 11.6103C3.03994 10.7879 3.03994 9.96498 3.03691 9.14256C3.03539 8.72807 2.71217 8.41943 2.28778 8.41568C1.85581 8.41194 1.52702 8.72432 1.52399 9.14631C1.52196 9.54862 1.52399 9.95093 1.52399 10.3537ZM15.1544 10.3776C15.1544 9.96919 15.1565 9.56079 15.1539 9.15239C15.1509 8.72667 14.8287 8.41522 14.3967 8.41522C13.9658 8.41522 13.642 8.72807 13.6405 9.15286C13.6385 9.96966 13.6385 10.7865 13.6405 11.6033C13.6415 12.028 13.9663 12.3409 14.3972 12.3404C14.8287 12.3404 15.1509 12.028 15.1534 11.6023C15.1565 11.1944 15.1544 10.786 15.1544 10.3776ZM8.34048 15.1463C7.92418 15.1458 7.58326 15.4601 7.58275 15.8455C7.58225 16.2305 7.92216 16.5471 8.33795 16.5476C8.75323 16.5481 9.09567 16.2324 9.09618 15.8484C9.09669 15.4634 8.75626 15.1472 8.34048 15.1463Z" fill="#EF5B25"/>
</svg>
