<svg width="40" height="40" viewBox="0 0 40 40" fill="none" xmlns="http://www.w3.org/2000/svg">
    <circle cx="20" cy="20" r="19.5" fill="#F7F8FA" stroke="#EAEBEE"/>
    <path d="M14.6301 18.8929C15.8795 18.8991 17.08 19.3809 17.989 20.241H21.6301C21.8144 20.2381 21.9932 20.1768 22.1406 20.0657L24.5322 18.1784V14.1342H21.845V12.4491H25.7414C25.8748 12.2705 26.0231 12.1036 26.1848 11.9503C26.4819 11.6593 26.8335 11.4302 27.2193 11.2763C27.6473 11.1089 28.1036 11.0265 28.5629 11.0336V14.1342H26.2116V18.3941C26.2121 18.5463 26.2539 18.6954 26.3326 18.8255L28.3076 22.1283C29.0858 22.1901 29.8146 22.5354 30.3566 23.0991C30.8986 23.6628 31.2164 24.4059 31.25 25.1884C31.2116 26.0455 30.8369 26.8526 30.2076 27.4335C29.5783 28.0143 28.7455 28.3219 27.8911 28.289C27.0366 28.3219 26.2039 28.0143 25.5746 27.4335C24.9453 26.8526 24.5706 26.0455 24.5322 25.1884H9.75297V23.5707C9.76516 22.9417 9.90121 22.3213 10.1533 21.7452C10.4054 21.1691 10.7685 20.6487 11.2218 20.2139C11.675 19.7792 12.2095 19.4386 12.7945 19.2119C13.3794 18.9852 14.0032 18.8768 14.6301 18.8929ZM14.6301 20.578C14.2238 20.5618 13.8183 20.6265 13.4371 20.7685C13.0559 20.9105 12.7065 21.1269 12.4092 21.4052C12.1118 21.6835 11.8724 22.0182 11.7047 22.3899C11.5371 22.7616 11.4445 23.1629 11.4324 23.5707H17.8144C17.8022 23.1641 17.7101 22.7639 17.5433 22.3931C17.3765 22.0223 17.1383 21.6882 16.8424 21.4101C16.5464 21.132 16.1987 20.9153 15.819 20.7725C15.4393 20.6297 15.0353 20.5636 14.6301 20.578ZM27.8911 26.6039C28.3004 26.6376 28.7065 26.5078 29.021 26.2428C29.3355 25.9777 29.533 25.5988 29.5705 25.1884C29.5168 24.7903 29.3124 24.4281 28.9997 24.1771C28.687 23.9261 28.29 23.8055 27.8911 23.8403C27.4921 23.8055 27.0952 23.9261 26.7825 24.1771C26.4698 24.4281 26.2654 24.7903 26.2116 25.1884C26.2492 25.5988 26.4467 25.9777 26.7612 26.2428C27.0757 26.5078 27.4817 26.6376 27.8911 26.6039ZM25.083 23.5707C25.4405 23.068 25.9351 22.6795 26.5072 22.4518L25.0427 19.9309L23.1886 21.3599C22.7504 21.6897 22.2181 21.8693 21.6704 21.8722H19.1579C19.3824 22.41 19.4967 22.9877 19.4938 23.5707H25.083Z" fill="#262626"/>
    <path d="M11.4388 10.7318H16.485C16.7115 10.7227 16.9375 10.7597 17.1494 10.8404C17.3613 10.9212 17.5548 11.0441 17.7182 11.2018C17.8816 11.3594 18.0115 11.5486 18.1002 11.758C18.1889 11.9673 18.2346 12.1925 18.2344 12.42V16.4717C18.2346 16.6992 18.1889 16.9244 18.1002 17.1337C18.0115 17.3431 17.8816 17.5323 17.7182 17.6899C17.5548 17.8476 17.3613 17.9705 17.1494 18.0513C16.9375 18.132 16.7115 18.169 16.485 18.1599H11.3715C10.9371 18.1424 10.5264 17.9569 10.2253 17.6422C9.92428 17.3274 9.75632 16.908 9.75667 16.4717V12.42C9.75667 11.9723 9.93389 11.5429 10.2493 11.2263C10.5648 10.9097 10.9926 10.7318 11.4388 10.7318ZM11.4388 16.4717H16.485V12.42H11.3715L11.4388 16.4717ZM14.6414 26.6008C15.0507 26.6311 15.4554 26.4997 15.7696 26.2349C16.0838 25.97 16.2825 25.5925 16.3235 25.1828H18.0056C17.9672 26.0414 17.5918 26.85 16.9616 27.4319C16.3313 28.0139 15.4972 28.322 14.6414 28.289C13.7856 28.322 12.9516 28.0139 12.3213 27.4319C11.6911 26.85 11.3157 26.0414 11.2773 25.1828H12.9594C12.997 25.5939 13.1948 25.9735 13.5098 26.239C13.8248 26.5046 14.2315 26.6346 14.6414 26.6008Z" fill="#262626"/>
</svg>
